<svg xmlns="http://www.w3.org/2000/svg" width="207.015" height="60" viewBox="0 0 207.015 60"><defs><style>.a{fill:#fff;}.b{fill:#01a5ff;}</style></defs><g transform="translate(11101.703 16433.765)"><g transform="translate(-11101.703 -16433.766)"><g transform="translate(0 0)"><circle class="a" cx="30" cy="30" r="30" transform="translate(0 0)"/></g><path class="b" d="M226.391,384.813a1.064,1.064,0,0,0-.7-.649l-3.869-1.134a1.064,1.064,0,1,0-.6,2.042l.4.119a83.146,83.146,0,0,0-8.29,2.8,4.221,4.221,0,0,0-2.542-1.354,17.023,17.023,0,0,0-5.544.08c-3.882.491-8.089,2.4-12.5,5.666a44.175,44.175,0,0,0-5.462,4.75,1.063,1.063,0,1,0,1.551,1.455c.081-.087,8.242-8.7,16.688-9.762l.016,0c3.269-.462,4.836-.205,5.586.125a28.3,28.3,0,0,0-4.787,2.733c-2.969,2.174-3.313,3.878-3.323,4.511a1.34,1.34,0,0,0,.006.144l.008.081.02.078a2.389,2.389,0,0,0,1.621,1.815,2.682,2.682,0,0,0,.779.109c2.469,0,5.619-2.842,5.654-2.873.02-.018.037-.037.055-.056a1.055,1.055,0,0,0,.089-.087,15.361,15.361,0,0,0,1.743-2.377A6.463,6.463,0,0,0,214,390.021a82.613,82.613,0,0,1,8.947-2.992l-.328.51a1.064,1.064,0,1,0,1.791,1.149l1.879-2.928A1.064,1.064,0,0,0,226.391,384.813Zm-16.71,9.156-.009.007a13.961,13.961,0,0,1-2.259,1.608,3.577,3.577,0,0,1-2.126.693c-.024-.007-.073-.022-.123-.14.119-.452.945-2.437,6.432-5.056A11.318,11.318,0,0,1,209.681,393.969Z" transform="translate(-176.692 -360.879)"/></g><path class="a" d="M1246.218,375.082a5.142,5.142,0,0,1,1.6,1.782,4.91,4.91,0,0,1,.6,2.4,4.828,4.828,0,0,1-.406,1.974,5.138,5.138,0,0,1-1.1,1.6,5.208,5.208,0,0,1-1.615,1.076,4.957,4.957,0,0,1-1.974.4h-7.7V367.353h7.466a4.382,4.382,0,0,1,1.794.371,4.925,4.925,0,0,1,1.472.993,4.52,4.52,0,0,1,1.352,3.253,3.941,3.941,0,0,1-.395,1.807,3.743,3.743,0,0,1-1.092,1.3Zm-6.962-1.364h3.831a1.551,1.551,0,0,0,1.555-1.555,1.418,1.418,0,0,0-.454-1.077,1.543,1.543,0,0,0-1.1-.431h-3.828Zm4.067,7.3a1.531,1.531,0,0,0,1.22-.607,2.149,2.149,0,0,0,.5-1.418,2.048,2.048,0,0,0-.5-1.4,1.568,1.568,0,0,0-1.22-.571h-4.067v4Zm7.13-14.189h3.3v17.488h-3.3Zm12.85,5.622h3.3v11.865h-2.823l-.479-.909a5.139,5.139,0,0,1-1.3.658,4.776,4.776,0,0,1-1.567.252,6.614,6.614,0,0,1-1.472-.191,4.088,4.088,0,0,1-2.751-2.177,5.175,5.175,0,0,1-.49-2.417v-7.08h3.3v6.941a2.162,2.162,0,0,0,.177.931,1.607,1.607,0,0,0,.481.608,2.029,2.029,0,0,0,.686.334,2.933,2.933,0,0,0,.8.106,2.476,2.476,0,0,0,.686-.108,2.195,2.195,0,0,0,.7-.346,1.956,1.956,0,0,0,.541-.62,1.809,1.809,0,0,0,.216-.907Zm11.343-.335a5.481,5.481,0,0,1,2.441.538,6.179,6.179,0,0,1,1.891,1.411,6.287,6.287,0,0,1,1.22,2.009,6.535,6.535,0,0,1,.431,2.333,6.7,6.7,0,0,1-.191,1.531h-8.472a4.088,4.088,0,0,0,1.364,1.374,3.507,3.507,0,0,0,1.914.562,8.71,8.71,0,0,0,1.807-.168,10.183,10.183,0,0,0,1.471-.431l1.1,2.034a6.875,6.875,0,0,1-2.021.957,8.574,8.574,0,0,1-2.429.335,7,7,0,0,1-2.632-.49,6.927,6.927,0,0,1-2.127-1.328,6.156,6.156,0,0,1-1.436-1.986,5.79,5.79,0,0,1-.526-2.441,6.2,6.2,0,0,1,1.806-4.39,6.549,6.549,0,0,1,1.974-1.352,5.849,5.849,0,0,1,2.414-.5Zm2.7,5.264a3.391,3.391,0,0,0-1.031-1.68,2.46,2.46,0,0,0-1.675-.646,2.646,2.646,0,0,0-1.735.646,3.255,3.255,0,0,0-1.063,1.675Zm16.508-1.8a4.155,4.155,0,0,1,1.531,1.531,4.3,4.3,0,0,1,.526,2.153,4.349,4.349,0,0,1-.551,2.142,5.671,5.671,0,0,1-1.555,1.759,6.792,6.792,0,0,1-2.068,1.063,8.535,8.535,0,0,1-2.456.4,8.368,8.368,0,0,1-2.464-.359,6.3,6.3,0,0,1-2.082-1.077,5.22,5.22,0,0,1-1.866-2.488l3.35-1.555a1.5,1.5,0,0,0,.168.6,2.287,2.287,0,0,0,.526.694,3.113,3.113,0,0,0,.934.574,3.717,3.717,0,0,0,1.411.236,3.83,3.83,0,0,0,1.182-.168,3.087,3.087,0,0,0,.861-.419,1.781,1.781,0,0,0,.526-.574,1.338,1.338,0,0,0,.177-.658,1.171,1.171,0,0,0-.251-.718,1.634,1.634,0,0,0-.777-.526,16.671,16.671,0,0,0-2.022-.562,17.545,17.545,0,0,1-2.068-.574,8.13,8.13,0,0,1-1.866-.921,3.966,3.966,0,0,1-1.364-1.6,4.275,4.275,0,0,1-.455-1.938,4.922,4.922,0,0,1,.539-2.225,5.348,5.348,0,0,1,1.471-1.818,6.617,6.617,0,0,1,1.986-1.063,7.2,7.2,0,0,1,2.321-.371,7.551,7.551,0,0,1,2.333.359,6.4,6.4,0,0,1,2,1.053,5.087,5.087,0,0,1,1.364,1.508l-2.728,1.866a3.814,3.814,0,0,0-1.254-1.111,3.412,3.412,0,0,0-1.687-.419,3.089,3.089,0,0,0-2,.574,1.857,1.857,0,0,0-.709,1.507.994.994,0,0,0,.395.768,3.911,3.911,0,0,0,1.034.593,10.578,10.578,0,0,0,1.424.467l1.567.407q.778.2,1.472.418a5.07,5.07,0,0,1,1.123.479Zm9.762-3.469a5.48,5.48,0,0,1,2.44.538,6.175,6.175,0,0,1,1.891,1.411,6.3,6.3,0,0,1,1.221,2.009,6.535,6.535,0,0,1,.431,2.333,6.716,6.716,0,0,1-.191,1.531h-8.471a4.084,4.084,0,0,0,1.364,1.377,3.509,3.509,0,0,0,1.914.562,8.625,8.625,0,0,0,1.807-.168,10.22,10.22,0,0,0,1.472-.431l1.1,2.034a6.876,6.876,0,0,1-2.022.957,8.574,8.574,0,0,1-2.429.335,6.991,6.991,0,0,1-2.632-.49,6.914,6.914,0,0,1-2.127-1.328,6.159,6.159,0,0,1-1.436-1.986,5.784,5.784,0,0,1-.526-2.441,6.2,6.2,0,0,1,1.807-4.39,6.521,6.521,0,0,1,1.974-1.352,5.849,5.849,0,0,1,2.417-.5Zm2.7,5.264a3.386,3.386,0,0,0-1.027-1.677,2.456,2.456,0,0,0-1.675-.646,2.646,2.646,0,0,0-1.735.646,3.251,3.251,0,0,0-1.063,1.675Zm11.509-2.321a2.392,2.392,0,0,0-1.122.275,3.051,3.051,0,0,0-.921.741,3.559,3.559,0,0,0-.627,1.089,3.873,3.873,0,0,0-.227,1.34,3.584,3.584,0,0,0,.227,1.3,3.062,3.062,0,0,0,.622,1,2.9,2.9,0,0,0,.921.658,2.684,2.684,0,0,0,1.122.239,3.242,3.242,0,0,0,1.448-.347,3.56,3.56,0,0,0,1.208-.969l2.034,2.009a6.2,6.2,0,0,1-2.058,1.6,5.907,5.907,0,0,1-2.632.6,5.993,5.993,0,0,1-2.417-.49,6.229,6.229,0,0,1-1.962-1.34,6.438,6.438,0,0,1-1.328-1.986,6.262,6.262,0,0,1,0-4.857,6.425,6.425,0,0,1,1.328-1.986,6.136,6.136,0,0,1,9.188.49l-2.3,1.772a4.833,4.833,0,0,0-1.256-.9,3.05,3.05,0,0,0-1.256-.252Zm14-2.605h3.3v11.865h-2.823l-.479-.909a5.139,5.139,0,0,1-1.3.658,4.776,4.776,0,0,1-1.567.252,6.612,6.612,0,0,1-1.472-.191,4.084,4.084,0,0,1-2.751-2.177,5.183,5.183,0,0,1-.49-2.416v-7.081h3.3v6.941a2.162,2.162,0,0,0,.177.931,1.6,1.6,0,0,0,.482.608,2.017,2.017,0,0,0,.686.334,2.928,2.928,0,0,0,.794.108,2.481,2.481,0,0,0,.686-.108,2.209,2.209,0,0,0,.7-.346,1.957,1.957,0,0,0,.541-.62,1.813,1.813,0,0,0,.216-.907Zm8.736,1.648a5.278,5.278,0,0,1,.55-.73,3.545,3.545,0,0,1,.739-.623,3.909,3.909,0,0,1,.981-.442,4.26,4.26,0,0,1,1.244-.168,7.468,7.468,0,0,1,1.891.287l-.311,2.943q-.264-.048-.526-.118-.216-.048-.479-.084a3.607,3.607,0,0,0-.479-.035,4.565,4.565,0,0,0-1.424.217,3.581,3.581,0,0,0-1.136.6,2.928,2.928,0,0,0-.768.921,2.428,2.428,0,0,0-.287,1.16v6.291h-3.3V372.452h2.991Zm12.465-1.986a5.481,5.481,0,0,1,2.441.538,6.184,6.184,0,0,1,1.89,1.411,6.284,6.284,0,0,1,1.22,2.009,6.533,6.533,0,0,1,.431,2.333,6.682,6.682,0,0,1-.191,1.531h-8.473a4.09,4.09,0,0,0,1.364,1.377,3.508,3.508,0,0,0,1.914.562,8.707,8.707,0,0,0,1.807-.168,10.185,10.185,0,0,0,1.471-.431l1.1,2.034a6.877,6.877,0,0,1-2.02.956,8.566,8.566,0,0,1-2.429.335,7,7,0,0,1-2.632-.49,6.935,6.935,0,0,1-2.127-1.328,6.159,6.159,0,0,1-1.438-1.984,5.79,5.79,0,0,1-.526-2.441,6.2,6.2,0,0,1,1.806-4.39,6.542,6.542,0,0,1,1.974-1.352,5.849,5.849,0,0,1,2.416-.5Zm2.7,5.264a3.4,3.4,0,0,0-1.031-1.677,2.445,2.445,0,0,0-1.672-.644,2.646,2.646,0,0,0-1.734.646,3.249,3.249,0,0,0-1.063,1.675Zm13.208.718a3.063,3.063,0,0,1,1.316,2.658,3.1,3.1,0,0,1-.37,1.483,4,4,0,0,1-1.017,1.221,4.909,4.909,0,0,1-1.507.827,5.584,5.584,0,0,1-1.843.3,5.52,5.52,0,0,1-1.447-.191,5.738,5.738,0,0,1-1.3-.526,4.366,4.366,0,0,1-1.041-.8,3.071,3.071,0,0,1-.663-1.043l1.22-.586q.671-.323,1.172-.587a2.1,2.1,0,0,0,.671.659,2.247,2.247,0,0,0,1.244.3,1.633,1.633,0,0,0,1.2-.383,1.071,1.071,0,0,0,.383-.718.573.573,0,0,0-.264-.443,2.153,2.153,0,0,0-.6-.323,2.489,2.489,0,0,0-.79-.2,3,3,0,0,1-.718-.132,5.369,5.369,0,0,1-1.974-.827,3.788,3.788,0,0,1-.993-1.041,2.338,2.338,0,0,1-.347-1q-.036-.478-.036-.768a3.31,3.31,0,0,1,.335-1.459,3.778,3.778,0,0,1,.921-1.209,4.681,4.681,0,0,1,1.364-.827,4.437,4.437,0,0,1,1.663-.311,4.6,4.6,0,0,1,2.632.814,4.094,4.094,0,0,1,.945.909,3.674,3.674,0,0,1,.586,1.173l-2.56.861a1.267,1.267,0,0,0-.587-.694,1.816,1.816,0,0,0-.945-.263,1.058,1.058,0,0,0-.813.335,1,1,0,0,0-.311.67.75.75,0,0,0,.3.634,1.868,1.868,0,0,0,.658.323q.263.048.515.084c.168.024.331.051.49.083a10.387,10.387,0,0,1,1.448.431,4.631,4.631,0,0,1,1.067.577Z" transform="translate(-12264.946 -16779.387)"/></g></svg>