<svg xmlns="http://www.w3.org/2000/svg" width="23.616" height="20.986" viewBox="0 0 23.616 20.986"><defs><style>.a{fill:#333;stroke:#333;stroke-miterlimit:10;}</style></defs><g transform="translate(0.5 0.293)"><path class="a" d="M2.1,19.986a2.135,2.135,0,0,1-1.5-.567A2.091,2.091,0,0,1,0,17.882v-4.47a.263.263,0,1,1,.525,0v4.47A1.537,1.537,0,0,0,.97,19.041a1.605,1.605,0,0,0,1.134.42H20.512a1.6,1.6,0,0,0,1.134-.42,1.537,1.537,0,0,0,.444-1.159v-4.47a.263.263,0,1,1,.525,0v4.47a2.091,2.091,0,0,1-.608,1.538,2.133,2.133,0,0,1-1.5.567Zm9.039-5.317L6.409,10.987a.277.277,0,0,1,.156-.476.262.262,0,0,1,.173.057l4.306,3.345V.263a.263.263,0,0,1,.525,0V13.913l4.306-3.345a.266.266,0,1,1,.329.419l-4.734,3.682a.272.272,0,0,1-.329,0Z" transform="translate(0 0.207)"/></g></svg>