<svg xmlns="http://www.w3.org/2000/svg" width="41.569" height="37.473" viewBox="0 0 41.569 37.473"><defs><style>.a{fill:#00a5ff;}.b{fill:#fff;stroke:#00a5ff;stroke-width:1.5px;}</style></defs><path class="a" d="M31.418,9.487a3.409,3.409,0,0,0-.337-.432L23.7,1.063A3.345,3.345,0,0,0,21.257,0H4.433A4.411,4.411,0,0,0,0,4.379V8.321a.785.785,0,0,0,.789.78.785.785,0,0,0,.789-.78V4.379A2.84,2.84,0,0,1,4.433,1.56H21.257a1.752,1.752,0,0,1,1.279.556l6.472,7.008H25.523A2.847,2.847,0,0,1,22.662,6.3V4.562a.789.789,0,0,0-1.579,0V6.3a4.417,4.417,0,0,0,4.439,4.385h4.74a1.685,1.685,0,0,1,.105.579V32.489A2.833,2.833,0,0,1,27.52,35.3H4.427a2.833,2.833,0,0,1-2.848-2.813V8.321a.785.785,0,0,0-.789-.78A.785.785,0,0,0,0,8.321V32.489a4.4,4.4,0,0,0,4.427,4.373H27.52a4.405,4.405,0,0,0,4.427-4.373V11.262A3.222,3.222,0,0,0,31.418,9.487Z"/><rect class="a" width="10.24" height="1.638" rx="0.819" transform="translate(4.505 10.24)"/><rect class="a" width="19.66" height="1.638" rx="0.819" transform="translate(4.505 15.154)"/><rect class="a" width="19.66" height="1.638" rx="0.819" transform="translate(4.505 20.479)"/><rect class="a" width="19.66" height="1.638" rx="0.819" transform="translate(4.505 25.394)"/><circle class="b" cx="7.029" cy="7.029" r="7.029" transform="translate(26.761 22.665)"/><path class="a" d="M7.457,3.106,4.449.19a.676.676,0,0,0-.941,0,.635.635,0,0,0-.014.9l.014.014L5.236,2.776H.645a.645.645,0,0,0,0,1.29H5.236L3.508,5.74a.635.635,0,0,0-.014.9l.014.014a.676.676,0,0,0,.941,0L7.457,3.736a.438.438,0,0,0,.009-.62l-.01-.01Z" transform="translate(36.802 25.599) rotate(90)"/></svg>