<svg xmlns="http://www.w3.org/2000/svg" width="18.185" height="18.026" viewBox="0 0 18.185 18.026"><defs><style>.a{fill:#333;}</style></defs><g transform="translate(-0.057 -0.45)"><g transform="translate(0.057 0.45)"><path class="a" d="M9.017,5.087A2.492,2.492,0,0,1,6.6,3.1H.544a.557.557,0,0,1,0-1.114H6.6a2.464,2.464,0,0,1,4.835,0h6.205a.572.572,0,0,1,.546.556.546.546,0,0,1-.546.559H11.434A2.5,2.5,0,0,1,9.017,5.087Zm0-3.971A1.412,1.412,0,0,0,7.623,2.542,1.413,1.413,0,0,0,9.017,3.971a1.428,1.428,0,0,0,0-2.854Z" transform="translate(0 6.447)"/><path class="a" d="M2.482,5.088A2.517,2.517,0,0,1,0,2.543,2.516,2.516,0,0,1,2.482,0,2.492,2.492,0,0,1,4.9,1.985H17.6a.545.545,0,0,1,.544.558A.545.545,0,0,1,17.6,3.1H4.9A2.494,2.494,0,0,1,2.482,5.088Zm0-3.973A1.412,1.412,0,0,0,1.089,2.543,1.412,1.412,0,0,0,2.482,3.97a1.413,1.413,0,0,0,1.4-1.427A1.413,1.413,0,0,0,2.482,1.115Z" transform="translate(0.022)"/><path class="a" d="M15.681,5.087a2.5,2.5,0,0,1-2.418-2.008H.545a.558.558,0,0,1,0-1.116H13.263a2.477,2.477,0,0,1,4.9.579A2.517,2.517,0,0,1,15.681,5.087Zm0-3.993a1.413,1.413,0,0,0-1.4,1.427,1.395,1.395,0,1,0,2.788,0A1.412,1.412,0,0,0,15.681,1.094Z" transform="translate(0 12.939)"/></g></g></svg>