<svg xmlns="http://www.w3.org/2000/svg" width="79.5" height="79.5" viewBox="0 0 79.5 79.5"><defs><style>.a,.b{fill:none;stroke-width:1.5px;}.a{stroke:#00adff;}.b{stroke:#00acff;stroke-linecap:round;stroke-linejoin:round;stroke-miterlimit:10;}</style></defs><g transform="translate(-146.25 -249.25)"><circle class="a" cx="39" cy="39" r="39" transform="translate(147 250)"/><g transform="translate(170.064 271.355)"><path class="b" d="M15.365,0V4.449A2.367,2.367,0,0,1,12.8,6.673H2.561A2.367,2.367,0,0,1,0,4.449V0" transform="translate(8.836 28.833)"/><g transform="translate(12.82 20.908)"><path class="b" d="M0,0,3.559,3.681,7.119,0" transform="translate(0 7.067)"/><path class="b" d="M.3,0V10.748" transform="translate(3.257)"/></g><path class="b" d="M13.025,24.912H0V1.176A1.176,1.176,0,0,1,1.176,0H8.252a1.176,1.176,0,0,1,.741.263l.374.3a10.581,10.581,0,0,0,6.667,2.364h9.45A4.415,4.415,0,0,1,29.62,7.067h0"/><g transform="translate(0.514 7.563)"><path class="b" d="M.437,15.8,4.619,3.22A4.7,4.7,0,0,1,9.082,0H29.947A2.351,2.351,0,0,1,32.2,3.008L28.28,16.5a1.176,1.176,0,0,1-1.129.847H20.519" transform="translate(-0.437)"/></g></g></g></svg>