<svg xmlns="http://www.w3.org/2000/svg" width="25.328" height="27.542" viewBox="0 0 25.328 27.542"><defs><style>.a{fill:none;stroke:#00acff;fill-rule:evenodd;}</style></defs><path class="a" d="M24.415,1.412a.873.873,0,0,1,.874.874V27.079a.873.873,0,0,1-.874.874H20.634a.874.874,0,0,1-.874-.874V2.285a.874.874,0,0,1,.874-.874h3.782ZM15.568,6.941a.873.873,0,0,1,.874.874V27.079a.873.873,0,0,1-.874.874H11.787a.874.874,0,0,1-.874-.874V7.814a.874.874,0,0,1,.874-.874h3.782ZM5.616,14.682a.873.873,0,0,1,.874.874V27.079a.873.873,0,0,1-.874.874H1.835a.874.874,0,0,1-.874-.874V15.556a.874.874,0,0,1,.874-.874H5.617Z" transform="translate(-0.461 -0.911)"/></svg>