<svg xmlns="http://www.w3.org/2000/svg" width="58" height="58" viewBox="0 0 58 58"><defs><style>.a,.d{fill:none;}.a{stroke:#fff;stroke-width:1.5px;}.b{fill:#fff;}.c{stroke:none;}</style></defs><g transform="translate(-1725 -32)"><g class="a" transform="translate(1725 32)"><circle class="c" cx="29" cy="29" r="29"/><circle class="d" cx="29" cy="29" r="28.25"/></g><g transform="translate(1736.999 46.477)"><g transform="translate(3.366)"><g transform="translate(0)"><path class="b" d="M17.315,0c-.008.008-.023.008-.045.008A13.873,13.873,0,0,0,6.389,22.527l-2.023,4.7a.754.754,0,0,0,.394.993.77.77,0,0,0,.432.053l7.418-1.3a13.368,13.368,0,0,0,4.622.8A13.885,13.885,0,0,0,17.315,0ZM17.24,26.262a12.163,12.163,0,0,1-4.281-.78.727.727,0,0,0-.4-.038L6.313,26.535l1.652-3.842a.762.762,0,0,0-.121-.8,12.114,12.114,0,0,1-2.106-3.5,12.371,12.371,0,1,1,23.891-4.577v.045A12.4,12.4,0,0,1,17.24,26.262Z" transform="translate(-3.366)"/></g></g><g transform="translate(11.799 11.116)"><g transform="translate(0)"><path class="b" d="M119.515,146.7h-4.092a.758.758,0,1,0,0,1.515h4.092a.758.758,0,1,0,0-1.515Z" transform="translate(-114.666 -146.7)"/></g></g><g transform="translate(11.799 14.904)"><g transform="translate(0)"><path class="b" d="M124.819,196.7h-9.4a.758.758,0,1,0,0,1.515h9.4a.758.758,0,1,0,0-1.515Z" transform="translate(-114.666 -196.7)"/></g></g></g></g></svg>