<svg xmlns="http://www.w3.org/2000/svg" width="22.63" height="29.057" viewBox="0 0 22.63 29.057"><defs><style>.a{fill:#00acff;}</style></defs><g transform="translate(-0.013 -0.122)"><path class="a" d="M22.643,26.406v-22h-.049a.587.587,0,0,0-.149-.213L18.126.277a.618.618,0,0,0-.2-.12V.122H2.785A2.774,2.774,0,0,0,.013,2.893V26.406a2.776,2.776,0,0,0,2.772,2.773H19.87a2.776,2.776,0,0,0,2.773-2.773Zm-1.757-22H18.464a.536.536,0,0,1-.536-.536V1.724l2.958,2.682Zm-19.668,22V2.893A1.568,1.568,0,0,1,2.785,1.326H16.723V3.87a1.741,1.741,0,0,0,1.74,1.74h2.975v20.8a1.57,1.57,0,0,1-1.568,1.568H2.785a1.57,1.57,0,0,1-1.567-1.568Z"/><path class="a" d="M4.779,14.018H17.634v1.2H4.779Zm0-5.815H17.634v1.2H4.779Zm0,11.63h9.948v1.2H4.779Z"/></g></svg>