<svg xmlns="http://www.w3.org/2000/svg" width="23.486" height="22.13" viewBox="0 0 23.486 22.13"><defs><style>.a{fill:#333;stroke:#333;stroke-miterlimit:10;stroke-width:0.7px;}</style></defs><g transform="translate(-1381.65 -367.447)"><path class="a" d="M22.24,2.6v8.806a2.927,2.927,0,0,1-.12.993,2.049,2.049,0,0,1-1.914,1.353c-.969.005-1.936,0-2.905,0h-.1l.272.274V7.953a.278.278,0,0,0-.272-.274H7.008c-.468,0-.942-.016-1.41,0H5.579a.278.278,0,0,0-.272.274v6.073l.272-.274H2.761a2.455,2.455,0,0,1-.942-.145A2.078,2.078,0,0,1,.545,11.655V5.719c0-1.037-.005-2.075,0-3.112A2.069,2.069,0,0,1,2.276.571,4.654,4.654,0,0,1,2.954.549H20.1a2.119,2.119,0,0,1,1.6.65,2.085,2.085,0,0,1,.545,1.4.272.272,0,0,0,.545,0A2.615,2.615,0,0,0,20.617.036,5.072,5.072,0,0,0,19.827,0H2.625a2.618,2.618,0,0,0-2.2,1.175A2.658,2.658,0,0,0,0,2.6v9.078A2.668,2.668,0,0,0,.346,13a2.627,2.627,0,0,0,1.361,1.144,2.922,2.922,0,0,0,1.035.151H5.574a.278.278,0,0,0,.272-.274V7.95l-.272.274h11.15c.15,0,.3.014.455,0H17.2l-.272-.274v6.073a.278.278,0,0,0,.272.274h2.93a2.613,2.613,0,0,0,2.05-.933,2.709,2.709,0,0,0,.6-1.754V5.031c0-.8.019-1.6,0-2.4V2.6A.27.27,0,0,0,22.24,2.6Z" transform="translate(1382 371.128)"/><path class="a" d="M11.524.264V3.31l.27-.257H.74c-.148,0-.3-.013-.451,0H.27l.27.257V.264L.27.522H10.377c.464,0,.934.015,1.4,0h.019a.257.257,0,1,0,0-.515H1.687c-.464,0-.934-.015-1.4,0H.27A.268.268,0,0,0,0,.264V3.31a.268.268,0,0,0,.27.257H10.377c.464,0,.934.015,1.4,0h.019a.268.268,0,0,0,.27-.257V.264A.271.271,0,0,0,11.524.264Z" transform="translate(1387.362 368)"/><path class="a" d="M11.517.282V9.6c0,.124-.011.253,0,.379V10l.27-.275H.746c-.148,0-.3-.014-.45,0H.277L.546,10V.678C.546.554.557.425.546.3V.282L.277.557H10.372c.464,0,.933.016,1.4,0h.019a.275.275,0,0,0,0-.55H1.692c-.464,0-.933-.016-1.4,0H.277a.277.277,0,0,0-.27.275V8.8c0,.393-.016.789,0,1.179v.016a.277.277,0,0,0,.27.275H10.372c.464,0,.933.016,1.4,0h.019a.277.277,0,0,0,.27-.275V1.478c0-.393.016-.789,0-1.179V.282A.27.27,0,0,0,11.517.282Z" transform="translate(1387.362 378.723)"/><path class="a" d="M.261.44H13.118c.594,0,1.194.015,1.788,0h.024c.348,0,.348-.433,0-.433H2.074C1.48.007.88-.008.286.007H.261c-.348,0-.348.433,0,.433Z" transform="translate(1386.021 378.723)"/><path class="a" d="M.253.447H1.981a.225.225,0,1,0,0-.447H.253a.225.225,0,1,0,0,.447Z" transform="translate(1398.979 375.149)"/><path class="a" d="M.257.559H4.649a.28.28,0,0,0,0-.559H.257a.28.28,0,0,0,0,.559Z" transform="translate(1390.945 382.318)"/><path class="a" d="M.257.559H3.334a.28.28,0,0,0,0-.559H.257a.28.28,0,0,0,0,.559Z" transform="translate(1390.945 385.306)"/></g></svg>