<svg xmlns="http://www.w3.org/2000/svg" width="68.057" height="53.532" viewBox="0 0 68.057 53.532"><defs><style>.a{fill:none;stroke-width:1.3px;}.a,.d{stroke:#00a5ff;}.a,.b{fill-rule:evenodd;}.b{fill:#fff;}.c,.d{fill:#00a5ff;}.d{stroke-width:0.6px;}</style></defs><g transform="translate(0 0.65)"><path class="a" d="M42.759,0H68.05a2.759,2.759,0,0,1,2.759,2.759V18.083h0V33.568a2.759,2.759,0,0,1-2.759,2.759H42.759A2.759,2.759,0,0,1,40,33.568V2.759A2.759,2.759,0,0,1,42.759,0Z" transform="translate(-21.606)"/><path class="b" d="M64,76h8.277v2.759H64Z" transform="translate(-34.57 -41.052)"/><path class="c" d="M2.47,41.131H16.216a.8.8,0,0,0,0-1.6H2.469a.811.811,0,0,1-.823-.8V16.394a.811.811,0,0,1,.823-.8H16.216a.8.8,0,0,0,0-1.6H2.469A2.433,2.433,0,0,0,0,16.394V38.737A2.433,2.433,0,0,0,2.47,41.131Z" transform="translate(0 -7.562)"/><path class="d" d="M15.573,37.336h2.2v.941H15.79a1.3,1.3,0,0,1,.132.56,2.754,2.754,0,0,1-.29,1.169,4.43,4.43,0,0,1-.952,1.259,4.109,4.109,0,0,1,1-.14,6.162,6.162,0,0,1,1.3.159,9.462,9.462,0,0,0,1.625.261,3.584,3.584,0,0,0,1.339-.356l.4,1.048a7.26,7.26,0,0,1-.994.325,3.32,3.32,0,0,1-.7.076,3.581,3.581,0,0,1-.593-.051q-.188-.032-.9-.233t-.924-.238a4.252,4.252,0,0,0-.656-.051,3.984,3.984,0,0,0-1.07.159,4.37,4.37,0,0,0-1.036.432L13,41.557a3.2,3.2,0,0,0,1.137-.963,2.485,2.485,0,0,0,.467-1.529,2.764,2.764,0,0,0-.119-.788H13.119v-.941h1.074A10.074,10.074,0,0,1,13.9,36.3a3.422,3.422,0,0,1-.063-.639,2.374,2.374,0,0,1,1.074-2.066A3.615,3.615,0,0,1,17,33a3.307,3.307,0,0,1,2.082.633,2.7,2.7,0,0,1,1.008,1.777l-1.248.172a1.834,1.834,0,0,0-.624-1.2,2.018,2.018,0,0,0-2.532.016,1.416,1.416,0,0,0-.512,1.1A5.912,5.912,0,0,0,15.573,37.336Z" transform="translate(-7.022 -17.825)"/><path class="c" d="M111,14.8a.8.8,0,0,0,.8.8h13.747a.811.811,0,0,1,.823.8V38.737a.811.811,0,0,1-.823.8H111.8a.8.8,0,0,0,0,1.6h13.747a2.433,2.433,0,0,0,2.47-2.394V16.394A2.433,2.433,0,0,0,125.544,14H111.8A.8.8,0,0,0,111,14.8Z" transform="translate(-59.958 -7.562)"/><path class="c" d="M76.233,92.594v-8.71a2.43,2.43,0,0,0-4-1.914c-.017.013-.032.027-.048.041a2.445,2.445,0,0,0-3.237,0,2.546,2.546,0,0,0-2.428-.476V77.486A2.473,2.473,0,0,0,64.5,75.034a2.446,2.446,0,0,0-1.974.533,2.387,2.387,0,0,0-.86,1.834v9.783l-2.148-1.273a2.245,2.245,0,0,0-2.152-.08l-.129.063a2.2,2.2,0,0,0-.3,3.778L62,93.247a.808.808,0,0,0,.47.147H75.424A.8.8,0,0,0,76.233,92.594Zm-1.619-.8H62.733l-4.856-3.426a.61.61,0,0,1,.081-1.047l.129-.062a.621.621,0,0,1,.595.022l3.374,2a.819.819,0,0,0,.816.012.8.8,0,0,0,.412-.7V77.4a.8.8,0,0,1,.289-.613.817.817,0,0,1,.662-.175.868.868,0,0,1,.668.873V83.8a.809.809,0,0,0,1.619,0,.809.809,0,0,1,1.619,0,.809.809,0,0,0,1.619,0,.809.809,0,0,1,1.619,0A.809.809,0,0,0,73,83.8a.8.8,0,0,1,.289-.613.817.817,0,0,1,.661-.175.868.868,0,0,1,.668.874v7.911Z" transform="translate(-30.249 -40.512)"/><path class="c" d="M123.333,42.169v1.122a.21.21,0,0,1-.221.2h-1.3a.214.214,0,0,1-.222-.2V42.169a4.488,4.488,0,0,1-2.535-1.149.2.2,0,0,1-.013-.263l.712-.866a.23.23,0,0,1,.324-.019,3.748,3.748,0,0,0,2.2.866c.676,0,1.409-.333,1.409-1.058,0-.616-.815-.917-1.747-1.265-1.243-.455-2.79-1.032-2.79-2.643a2.4,2.4,0,0,1,1.987-2.409V32.21A.215.215,0,0,1,121.36,32l1.385,0a.211.211,0,0,1,.221.206v1.128a3.841,3.841,0,0,1,2.175.88.193.193,0,0,1,.035.244l-.56.936a.238.238,0,0,1-.346.059,3.288,3.288,0,0,0-1.878-.694c-.877,0-1.485.405-1.485.989,0,.68.842.982,1.823,1.334,1.271.455,2.708.975,2.708,2.522A2.5,2.5,0,0,1,123.333,42.169Z" transform="translate(-64.279 -17.285)"/><path class="c" d="M68.429,23.729h2.818a.919.919,0,0,0,.758-.4l.321-.466A.552.552,0,0,0,71.87,22H61.283a.92.92,0,0,0-.758.4l-.321.466a.552.552,0,0,0,.454.865h2.285c.344.015,2.752.18,3.615,1.9h-5.3a.919.919,0,0,0-.757.4l-.321.466a.551.551,0,0,0,.455.864h6.218c0,.033,0,.065-.008.1,0,0-.034,3.784-6.585,3.128V31.4l.006.892,6.8,7.787a.92.92,0,0,0,.693.315h2.086a.18.18,0,0,0,.18-.18A.492.492,0,0,0,69.9,39.9L63.242,32v-.115s5.334.082,6.217-4.494l0-.033h1.758a.92.92,0,0,0,.757-.4l.321-.466a.552.552,0,0,0-.455-.865H69.367a3.919,3.919,0,0,0-.938-1.9Z" transform="translate(-32.454 -11.883)"/></g></svg>