<svg xmlns="http://www.w3.org/2000/svg" width="34.23" height="26.243" viewBox="0 0 34.23 26.243"><defs><style>.a{fill:#00acff;}</style></defs><g transform="translate(0)"><path class="a" d="M11.06,11.742a5.871,5.871,0,1,0-5.871-5.87A5.87,5.87,0,0,0,11.06,11.742Zm-7.82,4.3a11.06,11.06,0,0,1,17.432,2.349c.28.493-.86,1.622-1.686.233a9.046,9.046,0,0,0-7.925-4.413,10.056,10.056,0,0,0-9.809,9.65H0a10.983,10.983,0,0,1,3.24-7.819ZM11.06,1.306A4.564,4.564,0,1,1,6.5,5.87,4.563,4.563,0,0,1,11.06,1.306v0ZM27.794,26.243a.866.866,0,0,0,.549-.145.476.476,0,0,0,.181-.392.434.434,0,0,0-.181-.371.924.924,0,0,0-.549-.133H23.657l3.754-3.914a6.752,6.752,0,0,0,.581-.648.908.908,0,0,0,.144-.537q0-.705-.864-.705H22.825a.866.866,0,0,0-.548.147.47.47,0,0,0-.183.386.442.442,0,0,0,.183.369.9.9,0,0,0,.548.14h3.449l-4.015,4.207-.224.232-.06.064c-.057.06-.1.112-.139.155a.73.73,0,0,0-.114.185.511.511,0,0,0-.043.215.653.653,0,0,0,.261.544,1.252,1.252,0,0,0,.778.2h5.076Zm5.948-5.7a.576.576,0,0,0,.366-.1.317.317,0,0,0,.121-.261.289.289,0,0,0-.121-.248.613.613,0,0,0-.365-.088H30.985l2.5-2.609a4.671,4.671,0,0,0,.388-.434.6.6,0,0,0,.1-.357c0-.314-.193-.47-.576-.47H30.43a.581.581,0,0,0-.365.1.314.314,0,0,0-.122.257.3.3,0,0,0,.122.246.6.6,0,0,0,.365.092h2.3l-2.676,2.806-.149.154-.041.042-.092.1a.539.539,0,0,0-.076.123.346.346,0,0,0-.029.143.431.431,0,0,0,.175.363.826.826,0,0,0,.518.136h3.384Z" transform="translate(0)"/></g></svg>