<svg xmlns="http://www.w3.org/2000/svg" width="34.932" height="24.027" viewBox="0 0 34.932 24.027"><defs><style>.a{fill:#00acff;stroke:#00acff;stroke-width:0.2px;}</style></defs><path class="a" d="M8.862.155a3.653,3.653,0,1,0,3.661,3.66A3.669,3.669,0,0,0,8.862.155Zm19.007,0a3.653,3.653,0,1,0,3.66,3.66,3.67,3.67,0,0,0-3.66-3.66ZM8.862.962A2.846,2.846,0,1,1,6.023,3.815,2.838,2.838,0,0,1,8.862.962Zm9.5,0A4.442,4.442,0,1,0,22.808,5.4,4.449,4.449,0,0,0,18.366.962Zm9.5,0A2.846,2.846,0,1,1,25.03,3.815,2.839,2.839,0,0,1,27.869.962Zm-9.5.808A3.634,3.634,0,1,1,14.732,5.4,3.628,3.628,0,0,1,18.366,1.77ZM9.077,9.038a11.416,11.416,0,0,0-5.629,1.339A4.249,4.249,0,0,0,1,13.886v4.845a.4.4,0,0,0,.291.392,27.749,27.749,0,0,0,6.966.82H9.48V22.77a.405.405,0,0,0,.291.379,30.871,30.871,0,0,0,7.774.833h1.641a30.871,30.871,0,0,0,7.774-.833.4.4,0,0,0,.29-.379V19.943h1.225a27.8,27.8,0,0,0,6.966-.82.4.4,0,0,0,.291-.391V13.886a4.248,4.248,0,0,0-2.448-3.508,11.416,11.416,0,0,0-5.629-1.338c-3.323,0-6.18,1.126-7.434,2.94a15.2,15.2,0,0,0-3.71,0c-1.254-1.814-4.111-2.94-7.434-2.94Zm0,.808c2.9,0,5.367.977,6.524,2.271a11.044,11.044,0,0,0-3.432,1.174,4.585,4.585,0,0,0-2.688,3.823v2.02H8.268a27.866,27.866,0,0,1-6.462-.745V13.886a3.44,3.44,0,0,1,2.044-2.8A10.687,10.687,0,0,1,9.076,9.847Zm18.577,0a10.694,10.694,0,0,1,5.225,1.237,3.44,3.44,0,0,1,2.044,2.8v4.507a27.852,27.852,0,0,1-6.461.745H27.25v-2.02a4.583,4.583,0,0,0-2.688-3.823,11.02,11.02,0,0,0-3.432-1.174c1.157-1.3,3.621-2.271,6.524-2.271Zm-9.289,2.828A12.107,12.107,0,0,1,24.171,14a3.757,3.757,0,0,1,2.271,3.117v5.313a31.6,31.6,0,0,1-7.268.745H17.558a31.617,31.617,0,0,1-7.27-.745V17.117A3.759,3.759,0,0,1,12.559,14a12.113,12.113,0,0,1,5.806-1.325Z" transform="translate(-0.9 -0.055)"/></svg>